# xmcd
#
# Track frame offsets: 
#        150
#        20175
#        37682
#        57222
#        79272
#        95097
#        114372
#        134310
#        148652
#        166082
#        181075
#        197775
#
# Disc length: 2931 seconds
#
# Revision: 4
# Processed by: cddbd v1.5.2PL0 Copyright (c) Steve Scherf et al.
# Submitted via: ExactAudioCopy v0.99pb5
#
DISCID=9c0b710c
DTITLE=Gary Floyd Band - Broken Angels
DYEAR=1995
DGENRE=Blues
TTITLE0=Won't Be So Sad
TTITLE1=Spirit On The Wind
TTITLE2=More Than A Lifetime
TTITLE3=One Backdoor Man
TTITLE4=King Bee
TTITLE5=Laredo
TTITLE6=Don't Send Me Away
TTITLE7=Loving You (Was All I Ever Needed)
TTITLE8=Wilde Side Of Life
TTITLE9=Baby Spends My Money
TTITLE10=Angel Flying Too Close To The Ground
TTITLE11=Can't Do That
EXTD=
EXTT0=
EXTT1=
EXTT2=
EXTT3=
EXTT4=
EXTT5=
EXTT6=
EXTT7=
EXTT8=
EXTT9=
EXTT10=
EXTT11=
PLAYORDER=
